# xmcd
#
# Track frame offsets: 
#        150
#        12567
#        23324
#        34324
#        47599
#        60917
#        73459
#        88177
#        102956
#        115575
#        126369
#        136397
#        148215
#        158716
#        178080
#        190535
#        204335
#        215760
#        227610
#        239869
#        252375
#        266486
#
# Disc length: 3738 seconds
#
# Revision: 1
# Processed by: cddbd v1.5.2PL0 Copyright (c) Steve Scherf et al.
# Submitted via: ExactAudioCopyFreeDBPlugin 1.0
#
DISCID=430e9816
DTITLE=King Curtis - The Complete Atco Singles [Rhino Real Gone Music]
DYEAR=2015
DGENRE=Rhythm and Blues
TTITLE0=Games People Play
TTITLE1=Foot Pattin', Part II
TTITLE2=Instant Groove
TTITLE3=Sweet Inspiration
TTITLE4=La Jeanne
TTITLE5=Little Green Apples
TTITLE6=Rocky Roll
TTITLE7=C.C. Rider
TTITLE8=Patty Cake
TTITLE9=Pop Corn Willy
TTITLE10=Teasin'
TTITLE11=Soulin'
TTITLE12=Get Ready
TTITLE13=Bridge Over Troubled Water
TTITLE14=Whole Lotta Love
TTITLE15=Floatin'
TTITLE16=Changes, Part II
TTITLE17=Changes, Part I
TTITLE18=Changes, Part I (live)
TTITLE19=Changes, Part II (live)
TTITLE20=Ridin' Thumb, Part 1 (unreleased)
TTITLE21=Ridin' Thumb, Part 2 (unreleased)
EXTD=
EXTT0=
EXTT1=
EXTT2=
EXTT3=
EXTT4=
EXTT5=
EXTT6=
EXTT7=
EXTT8=
EXTT9=
EXTT10=
EXTT11=
EXTT12=
EXTT13=
EXTT14=
EXTT15=
EXTT16=
EXTT17=
EXTT18=
EXTT19=
EXTT20=
EXTT21=
PLAYORDER=
